<?xml version="1.0" encoding="UTF-8" standalone="no"?>
<!-- Created with Inkscape (http://www.inkscape.org/) -->

<svg
   xmlns:dc="http://purl.org/dc/elements/1.1/"
   xmlns:cc="http://creativecommons.org/ns#"
   xmlns:rdf="http://www.w3.org/1999/02/22-rdf-syntax-ns#"
   xmlns:svg="http://www.w3.org/2000/svg"
   xmlns="http://www.w3.org/2000/svg"
   xmlns:sodipodi="http://sodipodi.sourceforge.net/DTD/sodipodi-0.dtd"
   xmlns:inkscape="http://www.inkscape.org/namespaces/inkscape"
   version="1.1"
   id="svg64"
   width="144.81468"
   height="173.90929"
   viewBox="0 0 144.81468 173.90929"
   sodipodi:docname="lion.svg"
   inkscape:version="0.92.5 (2060ec1f9f, 2020-04-08)">
  <metadata
     id="metadata70">
    <rdf:RDF>
      <cc:Work
         rdf:about="">
        <dc:format>image/svg+xml</dc:format>
        <dc:type
           rdf:resource="http://purl.org/dc/dcmitype/StillImage" />
        <dc:title></dc:title>
      </cc:Work>
    </rdf:RDF>
  </metadata>
  <defs
     id="defs68">
    <clipPath
       clipPathUnits="userSpaceOnUse"
       id="clipPath80">
      <rect
         style="opacity:1;fill:none;fill-opacity:1;stroke:#000000;stroke-width:4.30100012;stroke-miterlimit:4;stroke-dasharray:none;stroke-opacity:1"
         id="rect82"
         width="213.12621"
         height="195.72815"
         x="64"
         y="26.718447" />
    </clipPath>
    <clipPath
       clipPathUnits="userSpaceOnUse"
       id="clipPath80-3">
      <rect
         style="opacity:1;fill:none;fill-opacity:1;stroke:#000000;stroke-width:4.30100012;stroke-miterlimit:4;stroke-dasharray:none;stroke-opacity:1"
         id="rect82-6"
         width="213.12621"
         height="195.72815"
         x="64"
         y="26.718447" />
    </clipPath>
  </defs>
  <sodipodi:namedview
     pagecolor="#ffffff"
     bordercolor="#666666"
     borderopacity="1"
     objecttolerance="10"
     gridtolerance="10"
     guidetolerance="10"
     inkscape:pageopacity="0"
     inkscape:pageshadow="2"
     inkscape:window-width="1366"
     inkscape:window-height="703"
     id="namedview66"
     showgrid="false"
     fit-margin-left="0.3"
     fit-margin-top="0.3"
     fit-margin-right="0.3"
     fit-margin-bottom="0.3"
     inkscape:zoom="1.609375"
     inkscape:cx="46.217156"
     inkscape:cy="76.096334"
     inkscape:window-x="0"
     inkscape:window-y="0"
     inkscape:window-maximized="1"
     inkscape:current-layer="svg64" />
  <path
     style="fill:#000000;stroke-width:1.33333337"
     d="m 38.42057,171.85143 c -12.35131,-14.08525 -8.80865,-38.41042 7.46881,-51.28336 6.92971,-5.48032 11.70616,-9.05012 6.86041,-3.91977 -9.41607,9.96909 -17.51694,35.292 -13.83329,51.18019 1.44632,6.23824 2.26715,7.1739 -0.49593,4.02294 z m 3.66746,-3.35154 c -3.82618,-8.9487 5.08757,-23.13034 23.21557,-36.93563 17.45872,-13.2956 27.58917,-26.99893 30.18373,-40.829119 1.74727,-9.31369 2.82849,-10.88877 2.19319,0.0854 -1.08577,18.756149 -6.09495,31.474469 -29.73126,48.476779 -13.32744,9.58683 -18.46249,14.51502 -21.78049,22.45974 -0.44325,1.72842 -1.55239,3.54771 -1.91042,5.11598 -1.08622,3.11047 -0.98535,4.79482 -2.17032,1.62685 z M 92.2917,154.25804 c 0,-4.01984 -2.44921,-18.74963 -5.6504,-22.15714 -2.94454,-3.13432 2.3937,-10.80172 5.41614,-7.77928 2.26249,2.26249 4.35314,21.18204 2.5593,22.97588 -1.17557,1.17557 -2.32504,9.22018 -2.32504,6.96054 z m 4.59903,-9.80123 c -0.0233,-0.57922 2.95408,-3.27922 4.33813,-6 10.07087,-19.7975 12.94304,-51.566229 6.10666,-67.544909 -1.54831,-3.61883 6.54624,2.09077 9.62449,6.78878 4.62753,7.06251 -0.47048,35.801579 -9.50287,53.570579 -4.56434,8.97921 -10.4881,15.13033 -10.56641,13.18555 z m -73.48008,-5.40883 c -2.52397,-12.4076 2.94404,-19.89385 25.9712,-35.55708 22.88789,-15.568509 26.92872,-23.123909 21.73381,-40.637179 -0.6948,-2.34231 -0.52722,-2.43987 1.41788,-0.82557 15.1828,12.60061 3.8657,37.974479 -22.74897,51.005039 -15.34078,7.51087 -19.71636,12.09448 -23.36578,24.47674 l -1.96487,6.66666 z m -3.210237,-11.24755 c -0.184851,-6.82366 2.041137,-12.47176 7.674907,-19.47384 4.62331,-5.74622 5.45191,-11.857329 2.10862,-15.551619 -1.89097,-2.08951 -1.75289,-2.35536 1.66667,-3.2088 2.05066,-0.51179 5.63843,-2.38382 7.97284,-4.16005 11.53563,-8.77741 6.29367,8.76035 -7.36013,24.624429 -7.14047,8.29638 -9.45504,12.5559 -11.30936,20.81271 -0.32938,1.46667 -0.668479,0.0973 -0.753547,-3.04283 z m 119.580337,-9.2905 c -5.24195,-5.60271 -7.32525,-10.67688 -10.91796,-26.592399 -4.11604,-18.23382 -7.72096,-28.60201 -12.77449,-36.74094 -4.78833,-7.711833 -4.25355,-7.8197 4.81675,-0.97155 10.65065,8.04132 14.36963,17.09844 17.05626,41.5385 1.16472,10.595399 2.96424,17.140339 4.5431,20.999999 3.59176,8.78035 2.18085,7.00844 -2.72366,1.76639 z M 5.7201797,100.13177 c -3.29782,-2.309879 -6.11903399,-9.912129 -4.87829999,-13.145429 0.78412599,-2.04341 1.05439999,-1.99835 2.77851399,0.46316 2.416096,3.44947 7.3272913,3.48594 13.5771443,0.1008 2.666514,-1.44426 8.318842,-4.12037 12.560722,-5.9469 6.35908,-2.73819 8.0889,-4.20772 9.85727,-8.37407 2.41367,-5.68667 3.81561,-3.96899 2.49708,3.05944 -0.7996,4.26221 -9.30913,12.55416 -12.88357,12.55416 -4.44683,0 -16.362514,6.11171 -18.378355,9.42649 -2.1569053,3.546749 -2.5315433,3.682739 -5.1305053,1.862349 z M 24.71241,74.584401 c -3.27853,-1.18238 -8.700232,-1.74884 -14.072293,-1.47028 l -8.7389633,0.45315 -0.08279,-7.36217 c -0.04553,-4.04919 -0.527064,-9.28466 -1.07006399,-11.63437 -0.889827,-3.850514 -0.644502,-4.358231 2.48543699,-5.143795 5.852841,-1.46897 8.2496933,0.139464 5.611585,3.765715 -3.651906,5.01978 -3.841182,6.21279 -1.542325,9.72129 2.458915,3.75278 5.6577283,5.36768 12.9809403,6.55334 4.700353,0.76101 11.817883,5.14726 10.428483,6.42666 -0.36667,0.33763 -3.06667,-0.25166 -6,-1.30954 z m 32.76061,-5.88691 c -0.0516,-1.17999 -1.81249,-5.55247 -3.91293,-9.71663 C 48.84282,49.62883 50.20954,48.30178 64.45882,48.39841 c 14.41863,0.09779 34.50246,13.960481 33.17496,22.899631 -0.1071,0.72121 -1.2798,-1.99195 -2.45773,-3.67368 -8.77188,-12.52361 -31.42019,-13.8661 -35.67708,-2.11476 -1.0626,2.93333 -1.97427,4.36788 -2.02595,3.18789 z m 77.89672,-8.10128 C 109.89053,41.246633 95.84728,35.239762 75.04288,34.791954 53.226,34.322354 48.27073,29.116085 68.44285,27.857592 c 25.31264,-1.5792 54.53769,8.521005 68.27664,29.573579 6.92053,10.60452 5.70634,8.52361 -1.34975,3.16504 z M 25.37839,44.771897 c 1.83296,-0.782363 6.81978,-3.587423 8.42379,-5.094307 2.71649,-2.552009 1.22716,-1.690532 7.82592,-0.09746 l 7.08431,1.710287 -4.66666,1.997532 c -2.56667,1.098643 -8.56667,2.202035 -13.33334,2.451981 -7.06593,0.370511 -8.05112,0.191716 -5.33402,-0.968029 z M 111.1631,34.332786 C 107.37766,32.245442 100.77766,27.831902 96.49644,24.524918 79.54044,11.427429 59.08598,10.641224 46.37908,22.598562 c -4.62136,4.348746 -4.70387,2.421187 -0.18845,-4.40208 9.93406,-15.0113798 30.74754,-14.2684968 55.17259,1.969242 10.83742,7.204697 16.8784,9.942634 26.68252,12.09322 l 7.33334,1.608605 -4.95718,2.154357 c -7.00434,3.044047 -11.36937,2.661207 -19.2588,-1.68912 z M 27.16326,31.52293 c 1.94777,-2.314797 4.00572,-7.207394 4.90729,-11.666666 2.41717,-11.9555868 7.24603,-20.21500883 19.30853,-19.51491583 11.02255,0.639735 7.99781,1.10411403 1.51385,2.83830903 -6.95536,1.860277 -13.7208,7.8353438 -14.86329,13.1268838 -1.96144,9.084607 -4.79882,14.71568 -8.52358,16.915953 -5.55521,3.281546 -6.16308,4.083293 -2.3428,-1.699564 z"
     id="path105"
     inkscape:connector-curvature="0"
     sodipodi:nodetypes="csssccsccsccccssscscsscssccsscssscccscssccssssccccsccsccccccsssssccccssssccscscsccscssccccssscsccccsssccc" />
</svg>
